<svg width="70" height="70" viewBox="0 0 70 70" fill="none" xmlns="http://www.w3.org/2000/svg">
<path d="M63.1751 9.80137H57.4685C56.7733 9.80282 56.107 10.08 55.6159 10.5721C55.1248 11.0643 54.849 11.7311 54.849 12.4264V25.7742H44.7195C44.3558 25.5336 43.9812 25.3053 43.5998 25.0906V12.4264C43.5998 11.7311 43.3239 11.0643 42.8328 10.5721C42.3417 10.08 41.6755 9.80282 40.9802 9.80137H35.2736C34.5783 9.80282 33.9121 10.08 33.421 10.5721C32.9299 11.0643 32.6541 11.7311 32.6541 12.4264V23.0125C31.3979 23.1803 30.1636 23.4828 28.9722 23.9148C28.777 22.2848 28.1606 20.7336 27.1839 19.4141L21.305 11.4352V8.42734H23.1671C23.2928 8.42734 23.4173 8.40259 23.5334 8.35449C23.6495 8.3064 23.755 8.2359 23.8439 8.14704C23.9327 8.05817 24.0032 7.95266 24.0513 7.83655C24.0994 7.72044 24.1242 7.59599 24.1242 7.47031V3.77891C24.1238 3.07775 23.8451 2.40541 23.3493 1.90962C22.8535 1.41382 22.1812 1.13513 21.48 1.13477H12.2119C11.5114 1.13585 10.84 1.41468 10.3448 1.9101C9.84966 2.40552 9.57118 3.07709 9.57046 3.77754V7.46895C9.57046 7.72277 9.67129 7.96619 9.85077 8.14567C10.0302 8.32515 10.2737 8.42598 10.5275 8.42598H12.2187V11.7182L6.43687 19.3744C5.19127 21.0301 4.51543 23.0447 4.5105 25.1166V63.2912C4.51231 64.7367 5.08733 66.1225 6.10945 67.1446C7.13157 68.1667 8.51735 68.7417 9.96284 68.7436H23.5923C25.0378 68.7417 26.4236 68.1667 27.4457 67.1446C28.4678 66.1225 29.0429 64.7367 29.0447 63.2912V57.2127C30.2133 57.6323 31.4232 57.9265 32.6541 58.0904V64.3262C32.6537 65.4955 33.1171 66.6172 33.9426 67.4453C34.7682 68.2734 35.8885 68.7403 37.0578 68.7436H61.3869C62.556 68.7403 63.6762 68.2734 64.5015 67.4452C65.3268 66.6171 65.7899 65.4954 65.7892 64.3262V12.4264C65.7896 11.732 65.5146 11.0657 65.0246 10.5737C64.5346 10.0816 63.8696 9.8039 63.1751 9.80137ZM54.8353 27.6883C54.7757 28.2136 54.5253 28.6987 54.1316 29.0515C53.7379 29.4043 53.2284 29.6004 52.6998 29.6023H48.8853C48.3498 28.9226 47.7653 28.2829 47.1367 27.6883H54.8353ZM50.783 40.5521C50.783 43.673 49.8575 46.7238 48.1237 49.3188C46.3899 51.9138 43.9256 53.9363 41.0423 55.1308C38.159 56.3252 34.9863 56.6379 31.9253 56.0292C28.8644 55.4206 26.0526 53.9179 23.8456 51.7113C21.6387 49.5047 20.1355 46.6932 19.5263 43.6324C18.9172 40.5715 19.2293 37.3987 20.4232 34.5153C21.6171 31.6318 23.6393 29.1671 26.2339 27.4328C28.8286 25.6986 31.8793 24.7726 35.0001 24.7721C39.1838 24.7768 43.1948 26.4408 46.1532 29.3991C49.1115 32.3575 50.7755 36.3685 50.7802 40.5521H50.783ZM34.5708 15.1225H38.6724C38.9262 15.1225 39.1697 15.0216 39.3491 14.8422C39.5286 14.6627 39.6294 14.4192 39.6294 14.1654C39.6294 13.9116 39.5286 13.6682 39.3491 13.4887C39.1697 13.3092 38.9262 13.2084 38.6724 13.2084H34.5708V12.4264C34.5705 12.2386 34.6445 12.0584 34.7767 11.9252C34.909 11.7919 35.0886 11.7165 35.2763 11.7154H40.983C41.1707 11.7165 41.3503 11.7919 41.4825 11.9252C41.6148 12.0584 41.6888 12.2386 41.6884 12.4264V24.1705C39.5668 23.3013 37.2956 22.8555 35.0029 22.858C34.858 22.858 34.7144 22.858 34.5708 22.858V15.1225ZM11.4845 6.51465V3.78027C11.4845 3.58701 11.5613 3.40166 11.698 3.265C11.8346 3.12834 12.02 3.05156 12.2132 3.05156H21.4814C21.6747 3.05156 21.86 3.12834 21.9967 3.265C22.1333 3.40166 22.2101 3.58701 22.2101 3.78027V6.51465H11.4845ZM19.391 8.42871V10.2676H14.1328V8.42871H19.391ZM27.132 63.2912C27.1309 64.2293 26.7578 65.1286 26.0944 65.792C25.4311 66.4553 24.5318 66.8284 23.5937 66.8295H22.9005L24.2199 64.6229C24.3385 64.4059 24.3686 64.1514 24.3037 63.9128C24.2389 63.6741 24.0842 63.4698 23.8721 63.3427C23.6599 63.2156 23.4068 63.1756 23.1658 63.231C22.9248 63.2864 22.7146 63.4329 22.5792 63.6398L20.6652 66.8295H17.9855V64.1307C17.9855 63.8768 17.8847 63.6334 17.7052 63.4539C17.5257 63.2745 17.2823 63.1736 17.0285 63.1736C16.7746 63.1736 16.5312 63.2745 16.3517 63.4539C16.1723 63.6334 16.0714 63.8768 16.0714 64.1307V66.8295H13.3986L11.4845 63.6398C11.4227 63.5268 11.3387 63.4274 11.2375 63.3476C11.1363 63.2678 11.0201 63.2093 10.8958 63.1755C10.7714 63.1417 10.6415 63.1334 10.5139 63.151C10.3862 63.1686 10.2635 63.2118 10.153 63.2781C10.0424 63.3443 9.94641 63.4322 9.87066 63.5364C9.79491 63.6406 9.74098 63.7591 9.71212 63.8847C9.68326 64.0102 9.68006 64.1404 9.7027 64.2672C9.72534 64.394 9.77337 64.515 9.8439 64.6229L11.1632 66.8295H9.96011C9.02274 66.8273 8.12445 66.4537 7.46201 65.7905C6.79958 65.1273 6.42701 64.2286 6.42593 63.2912V47.7887H14.9791C15.2329 47.7887 15.4763 47.6878 15.6558 47.5084C15.8353 47.3289 15.9361 47.0855 15.9361 46.8316C15.9361 46.5778 15.8353 46.3344 15.6558 46.1549C15.4763 45.9754 15.2329 45.8746 14.9791 45.8746H6.42593V38.541H14.9791C15.2329 38.541 15.4763 38.4402 15.6558 38.2607C15.8353 38.0812 15.9361 37.8378 15.9361 37.584C15.9361 37.3302 15.8353 37.0867 15.6558 36.9073C15.4763 36.7278 15.2329 36.627 14.9791 36.627H6.42593V25.1234C6.42938 23.4661 6.96947 21.8544 7.96538 20.5297L14.2681 12.1816H19.4785L25.6431 20.5461C26.5396 21.7565 27.0542 23.2071 27.121 24.7119C24.1722 26.1776 21.691 28.4374 19.9569 31.2368C18.2228 34.0362 17.3045 37.2641 17.3055 40.5572C17.3065 43.8502 18.2267 47.0775 19.9625 49.8759C21.6984 52.6743 24.1809 54.9326 27.1306 56.3965L27.132 63.2912ZM61.3869 66.8295H37.0509C36.4173 66.8269 35.8084 66.5835 35.3477 66.1486C34.8869 65.7137 34.6087 65.1199 34.5695 64.4875H63.871C63.8321 65.1205 63.5537 65.7149 63.0922 66.1499C62.6308 66.5849 62.021 66.8279 61.3869 66.8295ZM63.8751 62.5734H34.5681V58.2422C34.7048 58.2422 34.8552 58.2422 35.0001 58.2422C38.125 58.2429 41.1942 57.4158 43.8955 55.845C46.5968 54.2742 48.8338 52.0158 50.3787 49.2997C51.9236 46.5835 52.7214 43.5065 52.6908 40.3818C52.6603 37.2572 51.8024 34.1964 50.2046 31.5109H52.697C53.7766 31.508 54.811 31.077 55.5733 30.3125C56.3355 29.5479 56.7634 28.5122 56.763 27.4326V15.1279H60.8646C61.1184 15.1279 61.3618 15.0271 61.5413 14.8476C61.7208 14.6681 61.8216 14.4247 61.8216 14.1709C61.8216 13.9171 61.7208 13.6737 61.5413 13.4942C61.3618 13.3147 61.1184 13.2139 60.8646 13.2139H56.763V12.4264C56.7627 12.2386 56.8367 12.0584 56.9689 11.9252C57.1012 11.7919 57.2808 11.7165 57.4685 11.7154H63.1751C63.3627 11.7165 63.5422 11.792 63.6742 11.9253C63.8062 12.0586 63.88 12.2388 63.8792 12.4264L63.8751 62.5734Z" fill="black"/>
<path d="M32.2548 31.4728V37.5267H29.329C28.7841 37.5263 28.258 37.7267 27.8515 38.0896C27.4449 38.4525 27.1863 38.9525 27.1251 39.4941L26.8326 42.0917L26.648 43.7323C26.5345 44.7427 26.0355 45.7339 25.166 46.6814C24.9377 46.9294 24.7866 47.2386 24.731 47.571C24.6755 47.9035 24.7179 48.245 24.8532 48.5538C24.9884 48.8626 25.2106 49.1253 25.4927 49.3099C25.7747 49.4945 26.1044 49.5931 26.4415 49.5935H41.0704C41.4094 49.5944 41.7449 49.5253 42.0558 49.3905C42.3668 49.2557 42.6466 49.0581 42.8776 48.8101C43.1087 48.5621 43.286 48.2691 43.3985 47.9493C43.511 47.6296 43.5562 47.2901 43.5314 46.9521L43.1814 42.1505L42.9955 39.5884C42.9518 39.0314 42.7002 38.5112 42.2906 38.1312C41.881 37.7513 41.3434 37.5393 40.7847 37.5376H37.8999V31.4728C37.9082 31.0969 37.8413 30.7231 37.7032 30.3734C37.5651 30.0237 37.3585 29.7052 37.0956 29.4364C36.8326 29.1676 36.5187 28.9541 36.1721 28.8083C35.8256 28.6625 35.4534 28.5874 35.0774 28.5874C34.7014 28.5874 34.3292 28.6625 33.9826 28.8083C33.6361 28.9541 33.3221 29.1676 33.0592 29.4364C32.7963 29.7052 32.5897 30.0237 32.4516 30.3734C32.3134 30.7231 32.2466 31.0969 32.2548 31.4728ZM41.7513 47.0737C41.7585 47.1678 41.7461 47.2623 41.715 47.3513C41.6838 47.4404 41.6346 47.522 41.5704 47.5911C41.5062 47.6602 41.4284 47.7152 41.3419 47.7528C41.2554 47.7903 41.162 47.8096 41.0677 47.8093H39.7949L39.6253 45.7831C39.6056 45.5474 39.493 45.3292 39.3124 45.1766C39.1317 45.0239 38.8978 44.9492 38.6622 44.969C38.4265 44.9887 38.2083 45.1013 38.0556 45.2819C37.9029 45.4626 37.8282 45.6965 37.848 45.9321L38.008 47.8093H35.6304V45.8583C35.6304 45.6226 35.5368 45.3966 35.3701 45.2299C35.2035 45.0633 34.9774 44.9696 34.7417 44.9696C34.5061 44.9696 34.28 45.0633 34.1134 45.2299C33.9467 45.3966 33.8531 45.6226 33.8531 45.8583V47.8093H31.4728L31.6314 45.9376C31.6512 45.7019 31.5765 45.468 31.4238 45.2874C31.2711 45.1068 31.0529 44.9942 30.8172 44.9744C30.5815 44.9547 30.3477 45.0293 30.167 45.182C29.9864 45.3347 29.8738 45.5529 29.854 45.7886L29.6845 47.8148H26.5373C27.631 46.6034 28.2599 45.2978 28.4144 43.9306L28.5101 43.0829L41.4615 43.1007L41.7513 47.0737ZM40.7779 39.304C40.8891 39.3045 40.9961 39.347 41.0773 39.4231C41.1584 39.4992 41.2078 39.6032 41.2154 39.7142L41.333 41.3206L28.7111 41.3015L28.8915 39.6937C28.9037 39.5862 28.955 39.4871 29.0358 39.4152C29.1165 39.3432 29.2209 39.3037 29.329 39.304H40.7779ZM34.0322 31.4728C34.0271 31.3323 34.0504 31.1923 34.1006 31.0611C34.1508 30.9298 34.227 30.81 34.3246 30.7089C34.4221 30.6077 34.5391 30.5273 34.6684 30.4723C34.7978 30.4174 34.9369 30.3891 35.0774 30.3891C35.2179 30.3891 35.357 30.4174 35.4864 30.4723C35.6157 30.5273 35.7326 30.6077 35.8302 30.7089C35.9278 30.81 36.0039 30.9298 36.0542 31.0611C36.1044 31.1923 36.1277 31.3323 36.1226 31.4728V37.2327H34.0322V31.4728Z" fill="black"/>
</svg>
