<svg width="29" height="20" viewBox="0 0 29 20" fill="none" xmlns="http://www.w3.org/2000/svg">
<path d="M1.33368 0.541992C0.898129 0.541992 0.501465 0.924907 0.501465 1.4894V6.52422C0.501465 7.08871 0.898129 7.47163 1.33368 7.47163H1.41977V6.60542C1.41977 6.13304 1.83733 5.73922 2.33808 5.73922H21.6226C22.1233 5.73922 22.5409 6.13304 22.5409 6.60542V7.47163H23.4592V6.17232V5.73922H26.2141V7.47163H27.2185C27.6541 7.47163 28.0508 7.08871 28.0508 6.52422V1.4894C28.0508 0.924907 27.6541 0.541992 27.2185 0.541992H26.8742C27.0333 0.798302 27.1325 1.0914 27.1325 1.4082V3.14061C27.1325 4.09286 26.3053 4.87301 25.2958 4.87301H3.25639C2.2469 4.87301 1.41977 4.09286 1.41977 3.14061V1.4082C1.41977 1.0914 1.51891 0.798302 1.67805 0.541992H1.33368ZM3.25639 0.541992C2.73966 0.541992 2.33808 0.920853 2.33808 1.4082V3.14061C2.33808 3.62795 2.73966 4.00681 3.25639 4.00681H25.2958C25.8126 4.00681 26.2141 3.62795 26.2141 3.14061V1.4082C26.2141 0.920853 25.8126 0.541992 25.2958 0.541992H3.25639ZM3.25639 2.2744H25.2958V3.14061H3.25639V2.2744ZM2.33808 6.60542V9.20404H2.36678H21.5939H21.6226V6.60542H2.33808ZM24.3775 6.60542V7.47163H25.2958V6.60542H24.3775ZM9.39759 10.0702C9.23505 10.0702 9.11062 10.2113 9.11062 10.368V17.5413C9.11062 17.6979 9.23505 17.839 9.39759 17.839C9.5195 17.839 9.63976 17.7515 9.68456 17.6495C9.6995 17.6155 9.68456 17.5804 9.68456 17.5413V10.368C9.68456 10.2113 9.56013 10.0702 9.39759 10.0702ZM14.1039 10.0702C13.9414 10.0702 13.817 10.2113 13.817 10.368V17.5413C13.817 17.5804 13.802 17.6155 13.817 17.6495C13.8618 17.7515 13.982 17.839 14.1039 17.839C14.2665 17.839 14.3909 17.6979 14.3909 17.5413V10.368C14.3909 10.2113 14.2665 10.0702 14.1039 10.0702ZM8.10622 10.1244C7.94368 10.1244 7.81925 10.2384 7.81925 10.3951V17.5683C7.81925 18.2356 7.24799 18.7864 6.55657 18.7864C5.86515 18.7864 5.32259 18.2364 5.32259 17.5683C5.32259 17.0196 5.68423 16.5578 6.2409 16.4044C6.3967 16.3613 6.48641 16.2026 6.44178 16.0525C6.39714 15.9015 6.22536 15.82 6.06872 15.863C5.25771 16.087 4.69125 16.763 4.69125 17.5683C4.69125 18.5489 5.54092 19.3549 6.55657 19.3549C7.57223 19.3549 8.42189 18.5489 8.42189 17.5683V10.3951C8.42189 10.2384 8.26876 10.1244 8.10622 10.1244ZM15.3953 10.1244C15.2328 10.1244 15.0796 10.2384 15.0796 10.3951V17.5683C15.0796 18.5489 15.9293 19.3549 16.945 19.3549C17.9606 19.3549 18.8103 18.5489 18.8103 17.5683C18.8103 16.763 18.2438 16.087 17.4328 15.863C17.2762 15.82 17.1044 15.9015 17.0597 16.0525C17.0151 16.2026 17.1048 16.3613 17.2606 16.4044C17.8173 16.5578 18.1789 17.0196 18.1789 17.5683C18.1789 18.2364 17.6364 18.7864 16.945 18.7864C16.2535 18.7864 15.6823 18.2356 15.6823 17.5683V10.3951C15.6823 10.2384 15.5578 10.1244 15.3953 10.1244ZM6.55657 10.2056C6.45229 10.2473 6.38439 10.3588 6.38439 10.4763V13.5351C6.38439 14.2023 5.79707 14.7261 5.09301 14.7261C4.40244 14.7261 3.85904 14.2031 3.85904 13.5351C3.85904 12.9757 4.23583 12.4747 4.77735 12.344C4.93567 12.3067 5.04987 12.1694 5.00692 12.0192C4.96734 11.8666 4.79135 11.7916 4.63386 11.8297C3.82959 12.0229 3.25639 12.7135 3.25639 13.5351C3.25639 14.5157 4.07652 15.3216 5.09301 15.3216C6.12214 15.3216 6.95833 14.5157 6.95833 13.5351V10.4763C6.95833 10.3196 6.8339 10.2056 6.67136 10.2056C6.63072 10.2056 6.59133 10.1917 6.55657 10.2056ZM16.7154 10.2056C16.6111 10.2473 16.5432 10.3588 16.5432 10.4763V13.5351C16.5432 14.5157 17.3794 15.3216 18.4085 15.3216C19.425 15.3216 20.2451 14.5157 20.2451 13.5351C20.2451 12.7135 19.6719 12.0229 18.8677 11.8297C18.7102 11.7916 18.5342 11.8666 18.4946 12.0192C18.4517 12.1694 18.5659 12.3067 18.7242 12.344C19.2657 12.4747 19.6425 12.9757 19.6425 13.5351C19.6425 14.2031 19.0991 14.7261 18.4085 14.7261C17.7045 14.7261 17.1171 14.2023 17.1171 13.5351V10.4763C17.1171 10.3196 16.9927 10.2056 16.8302 10.2056C16.7895 10.2056 16.7501 10.1917 16.7154 10.2056Z" fill="#010101"/>
</svg>
