<svg width="29" height="29" viewBox="0 0 29 29" fill="none" xmlns="http://www.w3.org/2000/svg">
<path d="M23.4364 3.32056L9.57566 4.17873L4.41017 6.75325H3.23071V10.1859H4.41878L9.58427 12.7605L16.2305 13.1724L11.926 24.1827C11.8354 24.3409 11.7877 24.5198 11.7877 24.7019C11.7877 24.884 11.8354 25.063 11.926 25.2211C12.0226 25.3576 12.152 25.4676 12.3025 25.5411C12.4529 25.6146 12.6195 25.6492 12.7869 25.6416H15.3094C15.6732 25.6597 16.0334 25.5622 16.3381 25.3633C16.6429 25.1644 16.8765 24.8742 17.0054 24.5346L22.3086 13.55L23.4364 13.6186C24.8655 13.6186 25.5887 11.9023 25.5887 8.46959C25.5887 5.0369 24.8913 3.32056 23.4364 3.32056ZM4.09163 9.32777V7.61142H4.6254L9.25712 5.30294V11.6363L4.6254 9.32777H4.09163ZM16.1875 24.1484C16.1354 24.334 16.0222 24.4968 15.866 24.6104C15.7098 24.7241 15.5198 24.782 15.3266 24.7749H12.8127C12.7008 24.7749 12.7008 24.7749 12.7008 24.7749C12.6795 24.7322 12.6685 24.6852 12.6685 24.6376C12.6685 24.5899 12.6795 24.5429 12.7008 24.5003L17.0915 13.2239L21.3099 13.4899L16.1875 24.1484ZM23.4708 12.7605L10.118 11.9023V5.0369L23.4622 4.17873C24.2715 4.17873 24.7536 5.78351 24.7536 8.46959C24.7536 11.1557 24.2715 12.7605 23.4708 12.7605Z" fill="black"/>
<path d="M23.0318 5.89502H19.5881V6.75319H23.0318V5.89502Z" fill="black"/>
<path d="M23.0318 7.61157H19.5881V8.46975H23.0318V7.61157Z" fill="black"/>
<path d="M23.0318 9.32788H19.5881V10.1861H23.0318V9.32788Z" fill="black"/>
</svg>
