<svg width="28" height="28" viewBox="0 0 28 28" fill="none" xmlns="http://www.w3.org/2000/svg">
<path d="M13.6408 3.74162L11.6004 0.858154L5.57397 19.6436L8.00176 20.5017C8.22044 20.545 8.42801 20.6322 8.61184 20.758C8.79567 20.8837 8.95192 21.0454 9.0711 21.2333C9.19028 21.4211 9.26989 21.6311 9.3051 21.8506C9.34031 22.07 9.33038 22.2943 9.27591 22.5099L8.10507 26.6033H19.297L19.4261 26.3888C20.7961 23.8061 21.5475 20.9422 21.6214 18.0216C21.6214 11.345 19.2367 7.07133 13.6408 3.74162ZM6.65873 19.1029L11.9017 2.79763L12.8745 4.16212L7.84679 19.532L6.65873 19.1029ZM18.789 25.7452H9.25008L10.111 22.7244C10.2751 22.1582 10.2225 21.5515 9.96316 21.0218C9.70386 20.4922 9.25644 20.0775 8.70771 19.8581L13.5891 4.71993C18.5996 7.84368 20.7605 11.8428 20.7605 18.0216C20.6844 20.7098 20.011 23.3476 18.789 25.7452Z" fill="#231F20"/>
<path d="M14.9442 17.3569L13.6133 21.7344L14.4372 21.9833L15.7681 17.6058L14.9442 17.3569Z" fill="#231F20"/>
<path d="M15.2937 11.079L14.7944 10.6929L10.5156 24.8871H17.6096L17.7215 24.621C18.488 22.7969 18.9335 20.8548 19.0387 18.8798C19.0387 15.2498 18.0917 13.276 15.2937 11.079ZM17.0155 24.0289H11.6693L15.2507 12.1603C17.4546 14.0226 18.1778 15.7389 18.1778 18.8798C18.0842 20.6483 17.6942 22.3887 17.0241 24.0289H17.0155Z" fill="#231F20"/>
</svg>
