<svg width="29" height="29" viewBox="0 0 29 29" fill="none" xmlns="http://www.w3.org/2000/svg">
<path d="M23.7941 5.00981C23.4841 3.90277 22.6921 3.40503 21.2113 3.40503H5.71484V3.83412C5.85828 4.96178 6.29451 6.03261 6.98039 6.9407L6.88569 7.49851C6.19576 11.1019 5.80416 14.7557 5.71484 18.4231V20.5685C5.71484 21.0237 5.89625 21.4603 6.21916 21.7821C6.54206 22.104 6.98002 22.2848 7.43667 22.2848H20.3504C20.8071 22.2848 21.245 22.104 21.5679 21.7821C21.8908 21.4603 22.0722 21.0237 22.0722 20.5685V18.4231C22.0722 18.0026 22.0722 17.5048 22.0722 16.9642L23.2 16.209C23.5984 15.9592 23.9358 15.6238 24.1876 15.2274C24.4393 14.831 24.599 14.3835 24.655 13.9176C24.6896 10.9262 24.401 7.93968 23.7941 5.00981ZM7.738 7.63582L7.89296 6.72616L7.78104 6.58027C7.25835 5.88427 6.8674 5.09906 6.62741 4.2632H19.0332C19.8252 4.7352 21.1511 11.5577 21.2113 17.994H15.1849V7.26681C15.1849 6.92541 15.0489 6.59799 14.8067 6.35658C14.5645 6.11517 14.236 5.97955 13.8935 5.97955C13.551 5.97955 13.2226 6.11517 12.9804 6.35658C12.7382 6.59799 12.6022 6.92541 12.6022 7.26681V17.994H6.57576C6.69814 14.5168 7.08668 11.054 7.738 7.63582ZM14.324 7.26681V18.4231C14.324 18.5369 14.2786 18.646 14.1979 18.7265C14.1172 18.8069 14.0077 18.8521 13.8935 18.8521C13.7794 18.8521 13.6699 18.8069 13.5892 18.7265C13.5084 18.646 13.4631 18.5369 13.4631 18.4231V7.26681C13.4631 7.15301 13.5084 7.04387 13.5892 6.9634C13.6699 6.88293 13.7794 6.83772 13.8935 6.83772C14.0077 6.83772 14.1172 6.88293 14.1979 6.9634C14.2786 7.04387 14.324 7.15301 14.324 7.26681ZM20.3504 21.4267H7.43667C7.20835 21.4267 6.98937 21.3362 6.82792 21.1753C6.66646 21.0144 6.57576 20.7961 6.57576 20.5685V18.8521H12.6797C12.7662 19.1046 12.9297 19.3237 13.1474 19.4789C13.365 19.634 13.6259 19.7175 13.8935 19.7175C14.1611 19.7175 14.422 19.634 14.6397 19.4789C14.8574 19.3237 15.0209 19.1046 15.1074 18.8521H21.2113V20.5685C21.2113 20.7961 21.1206 21.0144 20.9592 21.1753C20.7977 21.3362 20.5787 21.4267 20.3504 21.4267ZM22.7007 15.4881L22.0034 15.9515C21.7967 12.0383 21.1425 6.38289 20.0233 4.2632H21.2113C22.5802 4.2632 22.8126 4.71803 22.9332 5.23294C23.5321 8.08864 23.8207 11.0003 23.7941 13.9176C23.7313 14.2408 23.6016 14.5473 23.4134 14.8177C23.2251 15.0881 22.9824 15.3164 22.7007 15.4881Z" fill="black"/>
<path d="M20.3504 23.1431H7.43667C6.98002 23.1431 6.54206 23.3239 6.21916 23.6458C5.89625 23.9676 5.71484 24.4042 5.71484 24.8594V25.7176H22.0722V24.8594C22.0722 24.4042 21.8908 23.9676 21.5679 23.6458C21.245 23.3239 20.8071 23.1431 20.3504 23.1431ZM6.57576 24.8594C6.57576 24.6318 6.66646 24.4135 6.82792 24.2526C6.98937 24.0917 7.20835 24.0012 7.43667 24.0012H20.3504C20.5787 24.0012 20.7977 24.0917 20.9592 24.2526C21.1206 24.4135 21.2113 24.6318 21.2113 24.8594H6.57576Z" fill="black"/>
</svg>
