<svg width="27" height="22" viewBox="0 0 27 22" fill="none" xmlns="http://www.w3.org/2000/svg">
<path d="M26.1113 20.6875C24.4594 20.6875 22.8021 20.6875 21.1502 20.6875C17.7389 20.6875 14.3221 20.6875 10.9107 20.6875C8.05895 20.6875 5.21254 20.6875 2.36076 20.6875C1.87112 20.6875 1.38147 20.6875 0.897206 20.6875C1.03172 20.8216 1.16624 20.9557 1.30076 21.0898C1.30076 18.6172 1.30076 16.1446 1.30076 13.672C1.30076 11.7357 1.30076 9.79946 1.30076 7.86321C1.16624 7.9973 1.03172 8.13139 0.897206 8.26547C2.54909 8.26547 4.20635 8.26547 5.85823 8.26547C9.26961 8.26547 12.6864 8.26547 16.0977 8.26547C18.9495 8.26547 21.7959 8.26547 24.6477 8.26547C25.1374 8.26547 25.627 8.26547 26.1113 8.26547C25.9767 8.13139 25.8422 7.9973 25.7077 7.86321C25.7077 10.3358 25.7077 12.8084 25.7077 15.281C25.7077 17.2173 25.7077 19.1535 25.7077 21.0898C25.7077 21.6101 26.5148 21.6101 26.5148 21.0898C26.5148 18.6172 26.5148 16.1446 26.5148 13.672C26.5148 11.7357 26.5148 9.79946 26.5148 7.86321C26.5148 7.6433 26.3319 7.46094 26.1113 7.46094C24.4594 7.46094 22.8021 7.46094 21.1502 7.46094C17.7389 7.46094 14.3221 7.46094 10.9107 7.46094C8.05895 7.46094 5.21254 7.46094 2.36076 7.46094C1.87112 7.46094 1.38147 7.46094 0.897206 7.46094C0.676597 7.46094 0.493652 7.6433 0.493652 7.86321C0.493652 10.3358 0.493652 12.8084 0.493652 15.281C0.493652 17.2173 0.493652 19.1535 0.493652 21.0898C0.493652 21.3097 0.676597 21.4921 0.897206 21.4921C2.54909 21.4921 4.20635 21.4921 5.85823 21.4921C9.26961 21.4921 12.6864 21.4921 16.0977 21.4921C18.9495 21.4921 21.7959 21.4921 24.6477 21.4921C25.1374 21.4921 25.627 21.4921 26.1113 21.4921C26.6332 21.4921 26.6332 20.6875 26.1113 20.6875Z" fill="black"/>
<path d="M26.1113 20.6875C24.4594 20.6875 22.8021 20.6875 21.1502 20.6875C17.7389 20.6875 14.3221 20.6875 10.9107 20.6875C8.05895 20.6875 5.21254 20.6875 2.36076 20.6875C1.87112 20.6875 1.38147 20.6875 0.897206 20.6875C1.03172 20.8216 1.16624 20.9557 1.30076 21.0898C1.30076 18.4187 1.30076 15.7423 1.30076 13.0712C1.30076 12.728 1.30076 12.3901 1.30076 12.0468C1.16624 12.1809 1.03172 12.315 0.897206 12.4491C2.54909 12.4491 4.20635 12.4491 5.85823 12.4491C9.26961 12.4491 12.6864 12.4491 16.0977 12.4491C18.9495 12.4491 21.7959 12.4491 24.6477 12.4491C25.1374 12.4491 25.627 12.4491 26.1113 12.4491C25.9767 12.315 25.8422 12.1809 25.7077 12.0468C25.7077 14.7179 25.7077 17.3943 25.7077 20.0654C25.7077 20.4086 25.7077 20.7465 25.7077 21.0898C25.7077 21.6101 26.5148 21.6101 26.5148 21.0898C26.5148 18.4187 26.5148 15.7423 26.5148 13.0712C26.5148 12.728 26.5148 12.3901 26.5148 12.0468C26.5148 11.8269 26.3319 11.6445 26.1113 11.6445C24.4594 11.6445 22.8021 11.6445 21.1502 11.6445C17.7389 11.6445 14.3221 11.6445 10.9107 11.6445C8.05895 11.6445 5.21254 11.6445 2.36076 11.6445C1.87112 11.6445 1.38147 11.6445 0.897206 11.6445C0.676597 11.6445 0.493652 11.8269 0.493652 12.0468C0.493652 14.7179 0.493652 17.3943 0.493652 20.0654C0.493652 20.4086 0.493652 20.7465 0.493652 21.0898C0.493652 21.3097 0.676597 21.4921 0.897206 21.4921C2.54909 21.4921 4.20635 21.4921 5.85823 21.4921C9.26961 21.4921 12.6864 21.4921 16.0977 21.4921C18.9495 21.4921 21.7959 21.4921 24.6477 21.4921C25.1374 21.4921 25.627 21.4921 26.1113 21.4921C26.6332 21.4921 26.6332 20.6875 26.1113 20.6875Z" fill="black"/>
<path d="M8.5647 7.86286C8.5647 10.3355 8.5647 12.8081 8.5647 15.2807C8.5647 17.2169 8.5647 19.1532 8.5647 21.0894C8.5647 21.6097 9.37181 21.6097 9.37181 21.0894C9.37181 18.6168 9.37181 16.1442 9.37181 13.6716C9.37181 11.7354 9.37181 9.79911 9.37181 7.86286C9.37181 7.34259 8.5647 7.34259 8.5647 7.86286Z" fill="black"/>
<path d="M26.1112 20.6875C23.9482 20.6875 21.7851 20.6875 19.6167 20.6875C16.4744 20.6875 13.3266 20.6875 10.1843 20.6875C9.77537 20.6875 9.37181 20.6875 8.96288 20.6875C9.0974 20.8216 9.23192 20.9557 9.36643 21.0898C9.36643 18.4187 9.36643 15.7423 9.36643 13.0712C9.36643 12.728 9.36643 12.3901 9.36643 12.0468C9.23192 12.1809 9.0974 12.315 8.96288 12.4491C11.1259 12.4491 13.289 12.4491 15.4574 12.4491C18.5997 12.4491 21.7475 12.4491 24.8898 12.4491C25.2987 12.4491 25.7023 12.4491 26.1112 12.4491C25.9767 12.315 25.8422 12.1809 25.7077 12.0468C25.7077 14.7179 25.7077 17.3943 25.7077 20.0654C25.7077 20.4086 25.7077 20.7465 25.7077 21.0898C25.7077 21.6101 26.5148 21.6101 26.5148 21.0898C26.5148 18.4187 26.5148 15.7423 26.5148 13.0712C26.5148 12.728 26.5148 12.3901 26.5148 12.0468C26.5148 11.8269 26.3318 11.6445 26.1112 11.6445C23.9482 11.6445 21.7851 11.6445 19.6167 11.6445C16.4744 11.6445 13.3266 11.6445 10.1843 11.6445C9.77537 11.6445 9.37181 11.6445 8.96288 11.6445C8.74227 11.6445 8.55933 11.8269 8.55933 12.0468C8.55933 14.7179 8.55933 17.3943 8.55933 20.0654C8.55933 20.4086 8.55933 20.7465 8.55933 21.0898C8.55933 21.3097 8.74227 21.4921 8.96288 21.4921C11.1259 21.4921 13.289 21.4921 15.4574 21.4921C18.5997 21.4921 21.7475 21.4921 24.8898 21.4921C25.2987 21.4921 25.7023 21.4921 26.1112 21.4921C26.6332 21.4921 26.6332 20.6875 26.1112 20.6875Z" fill="black"/>
<path d="M17.1362 12.0467C17.1362 14.7178 17.1362 17.3942 17.1362 20.0652C17.1362 20.4085 17.1362 20.7464 17.1362 21.0897C17.1362 21.61 17.9433 21.61 17.9433 21.0897C17.9433 18.4186 17.9433 15.7422 17.9433 13.0711C17.9433 12.7279 17.9433 12.39 17.9433 12.0467C17.9433 11.5264 17.1362 11.5264 17.1362 12.0467Z" fill="black"/>
<path d="M16.3722 10.4002C17.1524 10.4002 17.9326 10.4002 18.7128 10.4002C19.2347 10.4002 19.2347 9.5957 18.7128 9.5957C17.9326 9.5957 17.1524 9.5957 16.3722 9.5957C15.8502 9.5957 15.8502 10.4002 16.3722 10.4002Z" fill="black"/>
<path d="M26.1112 11.6445C23.9482 11.6445 21.7851 11.6445 19.6167 11.6445C16.4744 11.6445 13.3266 11.6445 10.1843 11.6445C9.77537 11.6445 9.37181 11.6445 8.96288 11.6445C9.0974 11.7786 9.23192 11.9127 9.36643 12.0468C9.36643 10.6523 9.36643 9.25774 9.36643 7.86321C9.23192 7.9973 9.0974 8.13138 8.96288 8.26547C11.1259 8.26547 13.289 8.26547 15.4574 8.26547C18.5997 8.26547 21.7475 8.26547 24.8898 8.26547C25.2987 8.26547 25.7023 8.26547 26.1112 8.26547C25.9767 8.13138 25.8422 7.9973 25.7077 7.86321C25.7077 9.25774 25.7077 10.6523 25.7077 12.0468C25.7077 12.5671 26.5148 12.5671 26.5148 12.0468C26.5148 10.6523 26.5148 9.25774 26.5148 7.86321C26.5148 7.6433 26.3318 7.46094 26.1112 7.46094C23.9482 7.46094 21.7851 7.46094 19.6167 7.46094C16.4744 7.46094 13.3266 7.46094 10.1843 7.46094C9.77537 7.46094 9.37181 7.46094 8.96288 7.46094C8.74227 7.46094 8.55933 7.6433 8.55933 7.86321C8.55933 9.25774 8.55933 10.6523 8.55933 12.0468C8.55933 12.2667 8.74227 12.4491 8.96288 12.4491C11.1259 12.4491 13.289 12.4491 15.4574 12.4491C18.5997 12.4491 21.7475 12.4491 24.8898 12.4491C25.2987 12.4491 25.7023 12.4491 26.1112 12.4491C26.6332 12.4491 26.6332 11.6445 26.1112 11.6445Z" fill="black"/>
<path d="M7.44012 19.2124C5.76671 19.2124 4.09869 19.2124 2.42528 19.2124C2.5598 19.3465 2.69432 19.4806 2.82884 19.6147C2.82884 17.5819 2.82884 15.5545 2.82884 13.5217C2.69432 13.6557 2.5598 13.7898 2.42528 13.9239C4.09869 13.9239 5.76671 13.9239 7.44012 13.9239C7.3056 13.7898 7.17108 13.6557 7.03656 13.5217C7.03656 15.5545 7.03656 17.5819 7.03656 19.6147C7.03656 20.135 7.84367 20.135 7.84367 19.6147C7.84367 17.5819 7.84367 15.5545 7.84367 13.5217C7.84367 13.3017 7.66073 13.1194 7.44012 13.1194C5.76671 13.1194 4.09869 13.1194 2.42528 13.1194C2.20467 13.1194 2.02173 13.3017 2.02173 13.5217C2.02173 15.5545 2.02173 17.5819 2.02173 19.6147C2.02173 19.8346 2.20467 20.017 2.42528 20.017C4.09869 20.017 5.76671 20.017 7.44012 20.017C7.95667 20.017 7.95667 19.2124 7.44012 19.2124Z" fill="black"/>
<path d="M8.96829 20.6875C6.37478 20.6875 3.78665 20.6875 1.19315 20.6875C1.09629 20.6875 0.99406 20.6875 0.897206 20.6875C1.03172 20.8216 1.16624 20.9557 1.30076 21.0898C1.30076 18.4187 1.30076 15.7423 1.30076 13.0712C1.30076 12.728 1.30076 12.3901 1.30076 12.0468C1.16624 12.1809 1.03172 12.315 0.897206 12.4491C3.49071 12.4491 6.07884 12.4491 8.67235 12.4491C8.7692 12.4491 8.87144 12.4491 8.96829 12.4491C8.83377 12.315 8.69925 12.1809 8.56473 12.0468C8.56473 14.7179 8.56473 17.3943 8.56473 20.0654C8.56473 20.4086 8.56473 20.7465 8.56473 21.0898C8.56473 21.6101 9.37184 21.6101 9.37184 21.0898C9.37184 18.4187 9.37184 15.7423 9.37184 13.0712C9.37184 12.728 9.37184 12.3901 9.37184 12.0468C9.37184 11.8269 9.1889 11.6445 8.96829 11.6445C6.37478 11.6445 3.78665 11.6445 1.19315 11.6445C1.09629 11.6445 0.99406 11.6445 0.897206 11.6445C0.676597 11.6445 0.493652 11.8269 0.493652 12.0468C0.493652 14.7179 0.493652 17.3943 0.493652 20.0654C0.493652 20.4086 0.493652 20.7465 0.493652 21.0898C0.493652 21.3097 0.676597 21.4921 0.897206 21.4921C3.49071 21.4921 6.07884 21.4921 8.67235 21.4921C8.7692 21.4921 8.87144 21.4921 8.96829 21.4921C9.49022 21.4921 9.49022 20.6875 8.96829 20.6875Z" fill="black"/>
<path d="M16.0493 17.7375C16.0493 16.9598 16.0493 16.1821 16.0493 15.4044C16.0493 14.8841 15.2422 14.8841 15.2422 15.4044C15.2422 16.1821 15.2422 16.9598 15.2422 17.7375C15.2422 18.2524 16.0493 18.2524 16.0493 17.7375Z" fill="black"/>
<path d="M19.8374 17.7375C19.8374 16.9598 19.8374 16.1821 19.8374 15.4044C19.8374 14.8841 19.0303 14.8841 19.0303 15.4044C19.0303 16.1821 19.0303 16.9598 19.0303 17.7375C19.0303 18.2524 19.8374 18.2524 19.8374 17.7375Z" fill="black"/>
<path d="M3.71664 9.99779C3.68974 10.6253 2.76964 10.6253 2.74273 9.99779C2.72121 9.37562 3.69512 9.37562 3.71664 9.99779C3.73817 10.5127 4.54527 10.5181 4.52375 9.99779C4.49685 9.27371 3.9534 8.73735 3.23238 8.71053C2.51136 8.68372 1.96791 9.32198 1.941 9.99779C1.9141 10.7165 2.55441 11.2582 3.23238 11.2851C3.9534 11.3119 4.49685 10.6736 4.52375 9.99779C4.54527 9.48289 3.73817 9.48289 3.71664 9.99779Z" fill="black"/>
<path d="M7.11728 9.99779C7.09037 10.6253 6.17027 10.6253 6.14337 9.99779C6.11646 9.37562 7.09037 9.37562 7.11728 9.99779C7.1388 10.5127 7.94591 10.5181 7.92439 9.99779C7.89748 9.27371 7.35403 8.73735 6.63301 8.71053C5.912 8.68372 5.36854 9.32198 5.34164 9.99779C5.31474 10.7165 5.95504 11.2582 6.63301 11.2851C7.35403 11.3119 7.89748 10.6736 7.92439 9.99779C7.94591 9.48289 7.1388 9.48289 7.11728 9.99779Z" fill="black"/>
<path d="M2.10792 7.26772C2.24782 7.5359 2.38772 7.80408 2.52762 8.06689C2.59218 8.19025 2.73746 8.26534 2.87736 8.26534C4.24407 8.26534 5.61615 8.26534 6.98285 8.26534C7.11737 8.26534 7.26803 8.19025 7.3326 8.06689C7.68773 7.39644 8.08052 6.75281 8.08052 5.96437C8.08052 5.46019 8.08052 4.96138 8.08052 4.4572C8.08052 4.23729 7.89757 4.05493 7.67697 4.05493C5.84214 4.05493 4.01269 4.05493 2.17787 4.05493C1.95726 4.05493 1.77431 4.23729 1.77431 4.4572C1.77969 5.40655 1.6667 6.39345 2.10792 7.26772C2.33929 7.73435 3.03878 7.32672 2.80741 6.86009C2.5868 6.42027 2.5868 5.97509 2.5868 5.49773C2.5868 5.1491 2.5868 4.80583 2.5868 4.4572C2.45228 4.59129 2.31777 4.72538 2.18325 4.85947C4.01807 4.85947 5.84752 4.85947 7.68235 4.85947C7.54783 4.72538 7.41331 4.59129 7.27879 4.4572C7.27879 4.95065 7.27879 5.43874 7.27879 5.93219C7.27879 6.58118 6.92905 7.10681 6.63849 7.65926C6.75686 7.5949 6.86986 7.52517 6.98823 7.46081C5.62153 7.46081 4.24945 7.46081 2.88274 7.46081C3.00112 7.52517 3.11411 7.5949 3.23249 7.65926C3.09259 7.39108 2.95269 7.1229 2.81279 6.86009C2.5599 6.39882 1.86579 6.80645 2.10792 7.26772Z" fill="black"/>
<path d="M8.96821 4.91846C8.53775 4.91846 8.11268 4.91846 7.68222 4.91846C7.16029 4.91846 7.16029 5.72299 7.68222 5.72299C8.11268 5.72299 8.53775 5.72299 8.96821 5.72299C9.49014 5.72299 9.49014 4.91846 8.96821 4.91846Z" fill="black"/>
<path d="M2.18281 4.91846C1.75235 4.91846 1.32728 4.91846 0.896819 4.91846C0.374889 4.91846 0.374889 5.72299 0.896819 5.72299C1.32728 5.72299 1.75235 5.72299 2.18281 5.72299C2.70474 5.72299 2.70474 4.91846 2.18281 4.91846Z" fill="black"/>
<path d="M15.5167 2.26889C18.1801 2.26889 20.849 2.26889 23.5124 2.26889C24.3734 2.26889 25.2343 2.26889 26.0952 2.26889C26.6171 2.26889 26.6171 1.46436 26.0952 1.46436C23.4317 1.46436 20.7629 1.46436 18.0994 1.46436C17.2385 1.46436 16.3776 1.46436 15.5167 1.46436C14.9948 1.46436 14.9948 2.26889 15.5167 2.26889Z" fill="black"/>
<path d="M19.8696 4.43588C19.8696 3.33635 19.8696 2.23681 19.8696 1.14264C19.8696 0.622374 19.0625 0.622374 19.0625 1.14264C19.0625 2.24218 19.0625 3.34171 19.0625 4.43588C19.0625 4.95615 19.8696 4.95615 19.8696 4.43588Z" fill="black"/>
<path d="M19.9559 5.32079C19.929 5.94833 19.0089 5.94833 18.982 5.32079C18.9551 4.69862 19.929 4.69862 19.9559 5.32079C19.9774 5.8357 20.7845 5.84106 20.763 5.32079C20.7361 4.59671 20.1927 4.06035 19.4716 4.03353C18.7506 4.00671 18.2072 4.64498 18.1803 5.32079C18.1534 6.03951 18.7937 6.58123 19.4716 6.60805C20.1927 6.63487 20.7361 5.9966 20.763 5.32079C20.7792 4.80589 19.972 4.80589 19.9559 5.32079Z" fill="black"/>
<path d="M24.7554 4.38753C24.7554 3.288 24.7554 2.18846 24.7554 1.08893C24.7554 0.568664 23.9482 0.568664 23.9482 1.08893C23.9482 2.18846 23.9482 3.288 23.9482 4.38753C23.9482 4.9078 24.7554 4.9078 24.7554 4.38753Z" fill="black"/>
<path d="M24.8414 5.27245C24.8145 5.89999 23.8944 5.89999 23.8675 5.27245C23.8406 4.65027 24.8145 4.65027 24.8414 5.27245C24.8629 5.78735 25.67 5.79272 25.6485 5.27245C25.6216 4.54837 25.0782 4.01201 24.3571 3.98519C23.6361 3.95837 23.0927 4.59664 23.0658 5.27245C23.0389 5.99117 23.6792 6.53289 24.3571 6.55971C25.0782 6.58653 25.6216 5.94826 25.6485 5.27245C25.6646 4.75755 24.8575 4.75755 24.8414 5.27245Z" fill="black"/>
</svg>
