<svg width="18" height="18" viewBox="0 0 18 18" fill="none" xmlns="http://www.w3.org/2000/svg">
<path d="M13.5011 10.7251C13.151 10.3561 12.7288 10.1588 12.2813 10.1588C11.8374 10.1588 11.4115 10.3525 11.047 10.7215L9.90654 11.8724C9.81272 11.8213 9.7189 11.7738 9.62867 11.7263C9.49877 11.6605 9.37606 11.5984 9.27141 11.5326C8.20314 10.8457 7.23229 9.95056 6.30122 8.79229C5.85007 8.21501 5.54692 7.72907 5.32678 7.2358C5.62271 6.96181 5.89698 6.67681 6.16408 6.40276C6.26514 6.30045 6.36614 6.1945 6.4672 6.09219C7.2251 5.32491 7.2251 4.33109 6.4672 3.56381L5.48196 2.56633C5.37008 2.45307 5.25459 2.33614 5.14632 2.21923C4.92979 1.99269 4.70242 1.75885 4.46784 1.53963C4.11777 1.18887 3.69913 1.00253 3.25883 1.00253C2.81853 1.00253 2.39268 1.18887 2.03178 1.53963C2.02817 1.54328 2.02817 1.54328 2.02456 1.54694L0.797511 2.80017C0.335561 3.26785 0.072106 3.83784 0.0143622 4.49916C-0.0722535 5.56606 0.238119 6.55989 0.476311 7.21024C1.06096 8.80695 1.93434 10.2867 3.23718 11.8724C4.81791 13.7834 6.71981 15.2923 8.89242 16.3556C9.72249 16.7538 10.8305 17.2252 12.0683 17.3055C12.1441 17.3092 12.2235 17.3129 12.2957 17.3129C13.1294 17.3129 13.8295 17.0096 14.3781 16.4067C14.3817 16.3995 14.3889 16.3958 14.3925 16.3885C14.5802 16.1583 14.7967 15.95 15.0241 15.7271C15.1793 15.5773 15.3381 15.4202 15.4932 15.2558C15.8506 14.8795 16.0382 14.441 16.0382 13.9916C16.0382 13.5385 15.8469 13.1038 15.4824 12.7384L13.5011 10.7251ZM14.7931 14.5725C14.7895 14.5725 14.7895 14.5762 14.7931 14.5725C14.6523 14.726 14.508 14.8648 14.3528 15.0183C14.1182 15.2448 13.8801 15.4823 13.6563 15.7491C13.2918 16.1436 12.8623 16.33 12.2993 16.33C12.2452 16.33 12.1874 16.33 12.1333 16.3263C11.0614 16.2569 10.0653 15.8331 9.31832 15.4714C7.2756 14.4702 5.48196 13.0489 3.99145 11.2477C2.76079 9.74594 1.93795 8.35754 1.39299 6.86677C1.05736 5.95699 0.934649 5.24818 0.988786 4.57955C1.02488 4.15206 1.18728 3.79765 1.48682 3.49439L2.71749 2.24845C2.89433 2.08038 3.08199 1.98904 3.26605 1.98904C3.49341 1.98904 3.67747 2.12788 3.79296 2.2448C3.79657 2.24845 3.80018 2.25211 3.80379 2.25576C4.02393 2.46402 4.23325 2.67959 4.4534 2.90978C4.56528 3.02671 4.68077 3.14362 4.79626 3.2642L5.7815 4.26167C6.16408 4.64897 6.16408 5.00704 5.7815 5.39433C5.67684 5.50029 5.5758 5.60625 5.47114 5.70856C5.16798 6.02277 4.87926 6.31511 4.56528 6.60006C4.55807 6.60739 4.55084 6.61102 4.54724 6.61835C4.23686 6.93256 4.29461 7.23949 4.35957 7.44775C4.36318 7.45872 4.36679 7.46968 4.3704 7.48064C4.62663 8.10906 4.98753 8.701 5.5361 9.40617L5.5397 9.4098C6.53576 10.6521 7.58602 11.6203 8.74446 12.362C8.89242 12.457 9.04404 12.5338 9.18836 12.6068C9.31832 12.6726 9.44103 12.7347 9.54568 12.8005C9.5601 12.8078 9.57452 12.8188 9.589 12.8261C9.71166 12.8882 9.82714 12.9174 9.94627 12.9174C10.2458 12.9174 10.4335 12.7274 10.4948 12.6653L11.7291 11.4157C11.8518 11.2915 12.0467 11.1417 12.274 11.1417C12.4978 11.1417 12.6819 11.2842 12.7937 11.4084C12.7973 11.4121 12.7973 11.4121 12.801 11.4157L14.7895 13.4289C15.1612 13.8016 15.1612 14.1852 14.7931 14.5725Z" fill="white"/>
<path d="M9.22821 4.11796C10.1738 4.27872 11.0327 4.73178 11.7184 5.426C12.4041 6.12022 12.848 6.98979 13.0104 7.94706C13.0501 8.18822 13.2558 8.35631 13.4904 8.35631C13.5193 8.35631 13.5445 8.35268 13.5734 8.34898C13.8405 8.30513 14.0173 8.04938 13.974 7.77903C13.7791 6.62076 13.2378 5.56484 12.4113 4.72813C11.5849 3.89142 10.5419 3.34336 9.39784 3.14605C9.13074 3.10221 8.88172 3.28125 8.83481 3.54797C8.7879 3.81469 8.96112 4.07411 9.22821 4.11796Z" fill="white"/>
<path d="M17.0668 7.63652C16.7456 5.72929 15.8578 3.99376 14.4936 2.61264C13.1294 1.23152 11.4152 0.332703 9.53124 0.00751995C9.26779 -0.0399788 9.01876 0.142709 8.97185 0.409432C8.92853 0.679812 9.1054 0.931916 9.37244 0.979419C11.0542 1.26806 12.5881 2.07554 13.8079 3.30685C15.0277 4.54182 15.8217 6.09469 16.1068 7.79729C16.1465 8.03844 16.3522 8.20654 16.5868 8.20654C16.6156 8.20654 16.641 8.20285 16.6698 8.19921C16.9332 8.15905 17.1137 7.90324 17.0668 7.63652Z" fill="white"/>
</svg>
