<svg width="20" height="20" viewBox="0 0 20 20" fill="none" xmlns="http://www.w3.org/2000/svg">
<path d="M15.6858 11.9309C15.291 11.5211 14.8148 11.302 14.3101 11.302C13.8095 11.302 13.3292 11.517 12.9181 11.9268L11.632 13.2048C11.5261 13.148 11.4203 13.0953 11.3186 13.0425C11.172 12.9695 11.0336 12.9005 10.9156 12.8275C9.71085 12.0648 8.61599 11.0708 7.56589 9.78464C7.05713 9.1436 6.71524 8.604 6.46696 8.05628C6.80071 7.752 7.11004 7.43554 7.41123 7.13125C7.52519 7.01765 7.63916 6.89999 7.75312 6.78639C8.60785 5.93439 8.60785 4.83084 7.75312 3.97884L6.64198 2.87123C6.5158 2.74546 6.38556 2.61563 6.26345 2.4858C6.01925 2.23426 5.76283 1.9746 5.49827 1.73117C5.10347 1.34168 4.63133 1.13477 4.13478 1.13477C3.63822 1.13477 3.15795 1.34168 2.75093 1.73117C2.74686 1.73523 2.74686 1.73523 2.74279 1.73928L1.35895 3.13089C0.837974 3.65021 0.540854 4.28312 0.475732 5.01747C0.378049 6.20216 0.72808 7.30571 0.996709 8.02788C1.65607 9.80086 2.64104 11.444 4.11036 13.2048C5.89307 15.3267 8.03803 17.0023 10.4882 18.183C11.4244 18.6252 12.6739 19.1486 14.07 19.2378C14.1554 19.2419 14.245 19.2459 14.3264 19.2459C15.2666 19.2459 16.0562 18.9092 16.6748 18.2398C16.6789 18.2316 16.6871 18.2276 16.6911 18.2195C16.9028 17.9639 17.147 17.7326 17.4034 17.4851C17.5784 17.3188 17.7575 17.1443 17.9325 16.9618C18.3355 16.5439 18.5471 16.057 18.5471 15.558C18.5471 15.0549 18.3314 14.5721 17.9203 14.1664L15.6858 11.9309ZM17.1429 16.2031C17.1388 16.2031 17.1388 16.2071 17.1429 16.2031C16.9842 16.3735 16.8214 16.5276 16.6463 16.698C16.3818 16.9496 16.1132 17.2133 15.8608 17.5095C15.4497 17.9476 14.9654 18.1546 14.3304 18.1546C14.2694 18.1546 14.2043 18.1546 14.1432 18.1505C12.9344 18.0734 11.811 17.6028 10.9685 17.2011C8.66483 16.0895 6.64198 14.5112 4.96101 12.511C3.5731 10.8436 2.64511 9.30183 2.03052 7.64651C1.652 6.63628 1.51361 5.84919 1.57467 5.10673C1.61537 4.63204 1.79852 4.23849 2.13634 3.90175L3.52426 2.51826C3.72369 2.33163 3.93534 2.2302 4.14292 2.2302C4.39934 2.2302 4.60691 2.38437 4.73716 2.5142C4.74123 2.51826 4.7453 2.52232 4.74937 2.52637C4.99764 2.75763 5.23371 2.997 5.48199 3.2526C5.60816 3.38243 5.73841 3.51226 5.86865 3.64615L6.9798 4.75375C7.41123 5.18381 7.41123 5.58142 6.9798 6.01147C6.86176 6.12913 6.7478 6.24679 6.62976 6.36039C6.28787 6.70931 5.96226 7.03388 5.60816 7.35034C5.60002 7.35845 5.59188 7.36251 5.58781 7.37062C5.23778 7.71954 5.3029 8.06034 5.37617 8.2916C5.38024 8.30377 5.38431 8.31594 5.38838 8.32811C5.67736 9.02595 6.08437 9.68321 6.70303 10.4662L6.7071 10.4703C7.83045 11.8497 9.01486 12.9249 10.3214 13.7485C10.4882 13.854 10.6592 13.9392 10.822 14.0203C10.9685 14.0933 11.1069 14.1623 11.2249 14.2353C11.2412 14.2435 11.2575 14.2556 11.2738 14.2637C11.4122 14.3327 11.5424 14.3652 11.6767 14.3652C12.0145 14.3652 12.2262 14.1542 12.2954 14.0852L13.6874 12.6977C13.8257 12.5597 14.0455 12.3934 14.302 12.3934C14.5543 12.3934 14.7619 12.5516 14.8881 12.6896C14.8921 12.6936 14.8921 12.6936 14.8962 12.6977L17.1388 14.9332C17.5581 15.347 17.5581 15.773 17.1429 16.2031Z" fill="black"/>
<path d="M10.8666 4.59557C11.933 4.77409 12.9016 5.27717 13.675 6.04804C14.4483 6.8189 14.9489 7.7845 15.1321 8.84748C15.1768 9.11525 15.4088 9.30188 15.6734 9.30188C15.706 9.30188 15.7345 9.29782 15.767 9.29377C16.0682 9.24508 16.2676 8.96108 16.2188 8.66085C15.999 7.37473 15.3885 6.20221 14.4564 5.27312C13.5244 4.34403 12.3481 3.73545 11.0579 3.51637C10.7567 3.46768 10.4759 3.66648 10.4229 3.96265C10.37 4.25883 10.5654 4.54689 10.8666 4.59557Z" fill="black"/>
<path d="M19.7072 8.50265C19.345 6.38482 18.3437 4.45766 16.8052 2.92406C15.2667 1.39045 13.3334 0.392387 11.2088 0.0312995C10.9117 -0.0214436 10.6308 0.181414 10.5779 0.477587C10.5291 0.777817 10.7285 1.05776 11.0297 1.1105C12.9264 1.43102 14.6562 2.32765 16.0319 3.69492C17.4076 5.06624 18.303 6.79053 18.6246 8.68117C18.6693 8.94894 18.9013 9.13557 19.1659 9.13557C19.1984 9.13557 19.2269 9.13151 19.2595 9.12746C19.5566 9.08283 19.7601 8.79883 19.7072 8.50265Z" fill="black"/>
</svg>
