<svg width="28" height="28" viewBox="0 0 28 28" fill="none" xmlns="http://www.w3.org/2000/svg">
<path d="M5.44434 2.93579V25.2483H22.6626V2.93579H5.44434ZM21.8017 3.79396V7.22666H6.30525V3.79396H21.8017ZM6.30525 24.3901V8.08483H21.8017V24.3901H6.30525Z" fill="black"/>
<path d="M8.88801 6.36845C9.36349 6.36845 9.74893 5.98423 9.74893 5.51027C9.74893 5.03632 9.36349 4.6521 8.88801 4.6521C8.41254 4.6521 8.0271 5.03632 8.0271 5.51027C8.0271 5.98423 8.41254 6.36845 8.88801 6.36845Z" fill="black"/>
<path d="M12.3316 6.36845C12.8071 6.36845 13.1925 5.98423 13.1925 5.51027C13.1925 5.03632 12.8071 4.6521 12.3316 4.6521C11.8561 4.6521 11.4707 5.03632 11.4707 5.51027C11.4707 5.98423 11.8561 6.36845 12.3316 6.36845Z" fill="black"/>
<path d="M15.7752 6.36845C16.2507 6.36845 16.6361 5.98423 16.6361 5.51027C16.6361 5.03632 16.2507 4.6521 15.7752 4.6521C15.2998 4.6521 14.9143 5.03632 14.9143 5.51027C14.9143 5.98423 15.2998 6.36845 15.7752 6.36845Z" fill="black"/>
<path d="M19.2191 6.36845C19.6945 6.36845 20.08 5.98423 20.08 5.51027C20.08 5.03632 19.6945 4.6521 19.2191 4.6521C18.7436 4.6521 18.3582 5.03632 18.3582 5.51027C18.3582 5.98423 18.7436 6.36845 19.2191 6.36845Z" fill="black"/>
<path d="M14.0535 9.80127C12.8616 9.80127 11.6965 10.1536 10.7054 10.8137C9.71438 11.4737 8.94196 12.4119 8.48584 13.5096C8.02971 14.6073 7.91037 15.8151 8.1429 16.9804C8.37543 18.1457 8.94939 19.2161 9.7922 20.0562C10.635 20.8963 11.7088 21.4685 12.8778 21.7003C14.0468 21.9321 15.2585 21.8131 16.3597 21.3584C17.4609 20.9037 18.4021 20.1338 19.0643 19.1459C19.7265 18.158 20.0799 16.9966 20.0799 15.8085C20.0799 14.2153 19.445 12.6873 18.3148 11.5607C17.1847 10.4342 15.6518 9.80127 14.0535 9.80127ZM14.0535 20.9575C13.0319 20.9575 12.0332 20.6555 11.1837 20.0897C10.3343 19.524 9.67218 18.7198 9.28122 17.7789C8.89025 16.8381 8.78796 15.8028 8.98727 14.804C9.18658 13.8051 9.67855 12.8877 10.401 12.1676C11.1234 11.4475 12.0438 10.9571 13.0458 10.7584C14.0478 10.5597 15.0864 10.6617 16.0303 11.0514C16.9741 11.4411 17.7809 12.1011 18.3485 12.9478C18.9161 13.7946 19.219 14.7901 19.219 15.8085C19.219 17.1741 18.6748 18.4838 17.7061 19.4494C16.7373 20.415 15.4235 20.9575 14.0535 20.9575Z" fill="black"/>
<path d="M14.0535 12.3757C13.3724 12.3757 12.7066 12.5771 12.1403 12.9542C11.574 13.3314 11.1326 13.8675 10.872 14.4948C10.6114 15.122 10.5432 15.8122 10.676 16.4781C10.8089 17.144 11.1369 17.7556 11.6185 18.2357C12.1001 18.7158 12.7137 19.0427 13.3817 19.1752C14.0497 19.3076 14.7421 19.2396 15.3714 18.9798C16.0006 18.72 16.5384 18.28 16.9168 17.7155C17.2952 17.151 17.4972 16.4873 17.4972 15.8084C17.4972 14.898 17.1344 14.0249 16.4886 13.3811C15.8428 12.7374 14.9668 12.3757 14.0535 12.3757ZM14.0535 18.3829C13.5427 18.3829 13.0434 18.232 12.6186 17.9491C12.1939 17.6662 11.8629 17.2641 11.6674 16.7937C11.4719 16.3232 11.4208 15.8056 11.5204 15.3062C11.6201 14.8068 11.866 14.348 12.2272 13.988C12.5885 13.6279 13.0487 13.3827 13.5497 13.2834C14.0507 13.184 14.57 13.235 15.0419 13.4299C15.5138 13.6247 15.9172 13.9547 16.201 14.3781C16.4848 14.8015 16.6363 15.2992 16.6363 15.8084C16.6363 16.4912 16.3642 17.1461 15.8798 17.6289C15.3954 18.1117 14.7385 18.3829 14.0535 18.3829Z" fill="black"/>
</svg>
