<svg width="28" height="29" viewBox="0 0 28 29" fill="none" xmlns="http://www.w3.org/2000/svg">
<g clip-path="url(#clip0_345:2133)">
<path d="M27.4216 9.79092C19.9034 2.27678 7.69781 2.2607 0.159709 9.755C0.147694 9.76697 0.13568 9.77895 0.123666 9.79092C-0.0446969 9.96471 -0.0398693 10.2417 0.134473 10.4095C0.304537 10.5732 0.57417 10.5732 0.744234 10.4095C7.9207 3.23775 19.5708 3.22304 26.7655 10.3766C26.7765 10.3876 26.7875 10.3986 26.7984 10.4095C26.9698 10.5811 27.2482 10.5817 27.4203 10.4108C27.5924 10.24 27.593 9.96247 27.4216 9.79092Z" fill="black"/>
<path d="M24.9402 12.2637C21.9855 9.29975 17.964 7.63734 13.7722 7.64701C9.58032 7.63734 5.55886 9.29975 2.60414 12.2637C2.43577 12.4375 2.4406 12.7145 2.61494 12.8823C2.78501 13.046 3.05464 13.046 3.2247 12.8823C9.03968 7.07567 18.4759 7.06741 24.3011 12.8639C24.3073 12.87 24.3135 12.8762 24.3196 12.8823C24.494 13.0502 24.7718 13.0454 24.9402 12.8716C25.1045 12.702 25.1045 12.4332 24.9402 12.2637Z" fill="black"/>
<path d="M22.4566 14.74C20.1603 12.4328 17.0325 11.1388 13.7722 11.147C10.5118 11.1388 7.38402 12.4328 5.08772 14.74C4.91645 14.9111 4.91678 15.1882 5.08838 15.3588C5.25998 15.5295 5.53795 15.5292 5.70917 15.3582C10.1489 10.9192 17.3579 10.9085 21.811 15.3341C21.819 15.3421 21.8271 15.3501 21.8352 15.3582C22.0064 15.5292 22.2844 15.5295 22.456 15.3588C22.6276 15.1881 22.6278 14.9111 22.4566 14.74Z" fill="black"/>
<path d="M19.9765 17.2117C18.3351 15.565 16.101 14.6413 13.7722 14.6468C11.4434 14.6413 9.20925 15.565 7.56781 17.2117C7.39939 17.3855 7.40422 17.6624 7.57856 17.8303C7.74862 17.994 8.01826 17.994 8.18837 17.8303C11.2664 14.7562 16.2615 14.7515 19.3454 17.8197C19.3489 17.8232 19.3525 17.8267 19.356 17.8303C19.5303 17.9981 19.8081 17.9933 19.9765 17.8195C20.1408 17.65 20.1408 17.3812 19.9765 17.2117Z" fill="black"/>
<path d="M17.5068 19.6931C17.5032 19.6895 17.4997 19.686 17.4961 19.6825C16.5093 18.6969 15.1691 18.1441 13.7722 18.1465C12.3753 18.1441 11.0351 18.6969 10.0484 19.6825C9.87359 19.8499 9.86805 20.1268 10.036 20.301C10.2039 20.4752 10.4817 20.4808 10.6565 20.3134C10.6601 20.3099 10.6637 20.3064 10.6672 20.3028C12.3824 18.5942 15.162 18.5942 16.8772 20.3028C17.0462 20.4761 17.324 20.48 17.4979 20.3116C17.6717 20.1432 17.6757 19.8664 17.5068 19.6931Z" fill="black"/>
<path d="M15.0141 22.161C15.0136 22.1605 15.0132 22.1602 15.0128 22.1597C14.3189 21.4979 13.2253 21.4979 12.5314 22.1597C11.8455 22.8427 11.8449 23.9507 12.5301 24.6345C13.2153 25.3182 14.3269 25.3187 15.0128 24.6357C15.6987 23.9527 15.6992 22.8447 15.0141 22.161ZM13.7721 24.2714C13.2873 24.2714 12.8943 23.8797 12.8943 23.3965C12.8943 22.9132 13.2873 22.5215 13.7721 22.5215C14.2569 22.5215 14.6498 22.9132 14.6498 23.3965C14.6498 23.8797 14.2568 24.2714 13.7721 24.2714Z" fill="black"/>
</g>
<defs>
<clipPath id="clip0_345:2133">
<rect width="27.5493" height="27.4615" fill="white" transform="translate(0 0.915283)"/>
</clipPath>
</defs>
</svg>
